<mxfile host="app.diagrams.net" modified="2023-03-02T09:23:08.536Z" agent="5.0 (Windows NT 10.0; Win64; x64) AppleWebKit/537.36 (KHTML, like Gecko) Chrome/110.0.0.0 Safari/537.36" version="20.6.2" etag="QaNtdbME93avh9Hxqk0O" type="github">
  <diagram id="qKa6MyCNjmFO1Zgiebp7" name="第 1 页">
    <mxGraphModel dx="1022" dy="1637" grid="1" gridSize="10" guides="1" tooltips="1" connect="1" arrows="1" fold="1" page="1" pageScale="1" pageWidth="827" pageHeight="1169" math="0" shadow="0">
      <root>
        <mxCell id="0" />
        <mxCell id="1" parent="0" />
        <mxCell id="R4tpUfyN2Cm-w9piKVZH-14" style="edgeStyle=orthogonalEdgeStyle;rounded=0;orthogonalLoop=1;jettySize=auto;html=1;entryX=0;entryY=0.5;entryDx=0;entryDy=0;" edge="1" parent="1" source="R4tpUfyN2Cm-w9piKVZH-2" target="R4tpUfyN2Cm-w9piKVZH-3">
          <mxGeometry relative="1" as="geometry" />
        </mxCell>
        <mxCell id="R4tpUfyN2Cm-w9piKVZH-2" value="" style="rounded=0;whiteSpace=wrap;html=1;" vertex="1" parent="1">
          <mxGeometry x="40" y="50" width="220" height="280" as="geometry" />
        </mxCell>
        <mxCell id="R4tpUfyN2Cm-w9piKVZH-3" value="" style="rounded=0;whiteSpace=wrap;html=1;" vertex="1" parent="1">
          <mxGeometry x="410" y="55" width="220" height="270" as="geometry" />
        </mxCell>
        <mxCell id="R4tpUfyN2Cm-w9piKVZH-5" value="机房A" style="text;html=1;align=center;verticalAlign=middle;resizable=0;points=[];autosize=1;strokeColor=none;fillColor=none;" vertex="1" parent="1">
          <mxGeometry x="60" y="15" width="60" height="30" as="geometry" />
        </mxCell>
        <mxCell id="R4tpUfyN2Cm-w9piKVZH-6" value="机房B" style="text;html=1;align=center;verticalAlign=middle;resizable=0;points=[];autosize=1;strokeColor=none;fillColor=none;" vertex="1" parent="1">
          <mxGeometry x="410" y="15" width="60" height="30" as="geometry" />
        </mxCell>
        <mxCell id="R4tpUfyN2Cm-w9piKVZH-10" value="" style="edgeStyle=orthogonalEdgeStyle;rounded=0;orthogonalLoop=1;jettySize=auto;html=1;" edge="1" parent="1" source="R4tpUfyN2Cm-w9piKVZH-7" target="R4tpUfyN2Cm-w9piKVZH-9">
          <mxGeometry relative="1" as="geometry" />
        </mxCell>
        <mxCell id="R4tpUfyN2Cm-w9piKVZH-7" value="APP/PC" style="rounded=1;whiteSpace=wrap;html=1;" vertex="1" parent="1">
          <mxGeometry x="280" y="-90" width="120" height="60" as="geometry" />
        </mxCell>
        <mxCell id="R4tpUfyN2Cm-w9piKVZH-12" value="" style="edgeStyle=orthogonalEdgeStyle;rounded=0;orthogonalLoop=1;jettySize=auto;html=1;" edge="1" parent="1" source="R4tpUfyN2Cm-w9piKVZH-9" target="R4tpUfyN2Cm-w9piKVZH-11">
          <mxGeometry relative="1" as="geometry" />
        </mxCell>
        <mxCell id="R4tpUfyN2Cm-w9piKVZH-9" value="redis单机，哨兵，主从" style="rounded=1;whiteSpace=wrap;html=1;" vertex="1" parent="1">
          <mxGeometry x="50" y="150" width="200" height="60" as="geometry" />
        </mxCell>
        <mxCell id="R4tpUfyN2Cm-w9piKVZH-18" style="edgeStyle=orthogonalEdgeStyle;rounded=0;orthogonalLoop=1;jettySize=auto;html=1;" edge="1" parent="1" source="R4tpUfyN2Cm-w9piKVZH-11">
          <mxGeometry relative="1" as="geometry">
            <mxPoint x="450" y="210" as="targetPoint" />
            <Array as="points">
              <mxPoint x="220" y="270" />
              <mxPoint x="220" y="210" />
            </Array>
          </mxGeometry>
        </mxCell>
        <mxCell id="R4tpUfyN2Cm-w9piKVZH-11" value="RDB文件" style="rounded=1;whiteSpace=wrap;html=1;" vertex="1" parent="1">
          <mxGeometry x="80" y="240" width="70" height="60" as="geometry" />
        </mxCell>
        <mxCell id="R4tpUfyN2Cm-w9piKVZH-13" value="持久化" style="text;html=1;strokeColor=none;fillColor=none;align=center;verticalAlign=middle;whiteSpace=wrap;rounded=0;" vertex="1" parent="1">
          <mxGeometry x="150" y="220" width="60" height="30" as="geometry" />
        </mxCell>
        <mxCell id="R4tpUfyN2Cm-w9piKVZH-16" value="" style="endArrow=classic;html=1;rounded=0;entryX=1.009;entryY=0.626;entryDx=0;entryDy=0;entryPerimeter=0;exitX=-0.015;exitY=0.643;exitDx=0;exitDy=0;exitPerimeter=0;" edge="1" parent="1" source="R4tpUfyN2Cm-w9piKVZH-3" target="R4tpUfyN2Cm-w9piKVZH-2">
          <mxGeometry width="50" height="50" relative="1" as="geometry">
            <mxPoint x="380" y="270" as="sourcePoint" />
            <mxPoint x="430" y="220" as="targetPoint" />
          </mxGeometry>
        </mxCell>
        <mxCell id="R4tpUfyN2Cm-w9piKVZH-17" value="专缆" style="text;html=1;strokeColor=none;fillColor=none;align=center;verticalAlign=middle;whiteSpace=wrap;rounded=0;" vertex="1" parent="1">
          <mxGeometry x="300" y="190" width="60" height="30" as="geometry" />
        </mxCell>
        <mxCell id="R4tpUfyN2Cm-w9piKVZH-19" value="远程本地目录，RDB文件备份" style="rounded=0;whiteSpace=wrap;html=1;" vertex="1" parent="1">
          <mxGeometry x="450" y="205" width="120" height="60" as="geometry" />
        </mxCell>
        <mxCell id="R4tpUfyN2Cm-w9piKVZH-25" value="Text" style="text;html=1;strokeColor=none;fillColor=none;align=center;verticalAlign=middle;whiteSpace=wrap;rounded=0;" vertex="1" parent="1">
          <mxGeometry x="370" y="120" width="60" height="30" as="geometry" />
        </mxCell>
        <mxCell id="R4tpUfyN2Cm-w9piKVZH-27" value="" style="rounded=0;whiteSpace=wrap;html=1;" vertex="1" parent="1">
          <mxGeometry x="210" y="480" width="230" height="470" as="geometry" />
        </mxCell>
        <mxCell id="R4tpUfyN2Cm-w9piKVZH-28" value="" style="rounded=0;whiteSpace=wrap;html=1;" vertex="1" parent="1">
          <mxGeometry x="600" y="490" width="240" height="460" as="geometry" />
        </mxCell>
        <mxCell id="R4tpUfyN2Cm-w9piKVZH-30" value="&lt;font style=&quot;font-size: 18px;&quot;&gt;热备&lt;/font&gt;" style="text;html=1;strokeColor=none;fillColor=none;align=center;verticalAlign=middle;whiteSpace=wrap;rounded=0;" vertex="1" parent="1">
          <mxGeometry x="20" y="430" width="100" height="50" as="geometry" />
        </mxCell>
        <mxCell id="R4tpUfyN2Cm-w9piKVZH-31" value="机房B" style="text;html=1;strokeColor=none;fillColor=none;align=center;verticalAlign=middle;whiteSpace=wrap;rounded=0;fontSize=18;" vertex="1" parent="1">
          <mxGeometry x="670" y="440" width="60" height="30" as="geometry" />
        </mxCell>
        <mxCell id="R4tpUfyN2Cm-w9piKVZH-32" value="机房A" style="text;html=1;strokeColor=none;fillColor=none;align=center;verticalAlign=middle;whiteSpace=wrap;rounded=0;fontSize=18;" vertex="1" parent="1">
          <mxGeometry x="270" y="440" width="60" height="30" as="geometry" />
        </mxCell>
        <mxCell id="R4tpUfyN2Cm-w9piKVZH-44" style="edgeStyle=orthogonalEdgeStyle;rounded=0;orthogonalLoop=1;jettySize=auto;html=1;fontSize=18;" edge="1" parent="1" source="R4tpUfyN2Cm-w9piKVZH-33" target="R4tpUfyN2Cm-w9piKVZH-43">
          <mxGeometry relative="1" as="geometry" />
        </mxCell>
        <mxCell id="R4tpUfyN2Cm-w9piKVZH-33" value="masster" style="rounded=0;whiteSpace=wrap;html=1;fontSize=18;" vertex="1" parent="1">
          <mxGeometry x="220" y="525" width="120" height="60" as="geometry" />
        </mxCell>
        <mxCell id="R4tpUfyN2Cm-w9piKVZH-35" value="" style="endArrow=none;html=1;rounded=0;fontSize=18;exitX=0;exitY=0.25;exitDx=0;exitDy=0;" edge="1" parent="1">
          <mxGeometry width="50" height="50" relative="1" as="geometry">
            <mxPoint x="200" y="740" as="sourcePoint" />
            <mxPoint x="840" y="740" as="targetPoint" />
            <Array as="points">
              <mxPoint x="510" y="740.5" />
            </Array>
          </mxGeometry>
        </mxCell>
        <mxCell id="R4tpUfyN2Cm-w9piKVZH-37" value="" style="endArrow=none;html=1;rounded=0;fontSize=18;exitX=0;exitY=0.25;exitDx=0;exitDy=0;entryX=1.011;entryY=0.315;entryDx=0;entryDy=0;entryPerimeter=0;" edge="1" parent="1" target="R4tpUfyN2Cm-w9piKVZH-28">
          <mxGeometry width="50" height="50" relative="1" as="geometry">
            <mxPoint x="210" y="610" as="sourcePoint" />
            <mxPoint x="820" y="610" as="targetPoint" />
            <Array as="points">
              <mxPoint x="520" y="610.5" />
            </Array>
          </mxGeometry>
        </mxCell>
        <mxCell id="R4tpUfyN2Cm-w9piKVZH-38" value="APP/PC" style="rounded=0;whiteSpace=wrap;html=1;fontSize=18;" vertex="1" parent="1">
          <mxGeometry y="550" width="80" height="170" as="geometry" />
        </mxCell>
        <mxCell id="R4tpUfyN2Cm-w9piKVZH-41" value="主从" style="text;html=1;strokeColor=none;fillColor=none;align=center;verticalAlign=middle;whiteSpace=wrap;rounded=0;fontSize=18;" vertex="1" parent="1">
          <mxGeometry x="210" y="495" width="60" height="30" as="geometry" />
        </mxCell>
        <mxCell id="R4tpUfyN2Cm-w9piKVZH-42" value="主从" style="text;html=1;strokeColor=none;fillColor=none;align=center;verticalAlign=middle;whiteSpace=wrap;rounded=0;fontSize=18;" vertex="1" parent="1">
          <mxGeometry x="600" y="495" width="60" height="30" as="geometry" />
        </mxCell>
        <mxCell id="R4tpUfyN2Cm-w9piKVZH-43" value="slave" style="rounded=0;whiteSpace=wrap;html=1;fontSize=18;" vertex="1" parent="1">
          <mxGeometry x="630" y="525" width="120" height="60" as="geometry" />
        </mxCell>
        <mxCell id="R4tpUfyN2Cm-w9piKVZH-45" value="repl" style="text;html=1;strokeColor=none;fillColor=none;align=center;verticalAlign=middle;whiteSpace=wrap;rounded=0;fontSize=18;" vertex="1" parent="1">
          <mxGeometry x="490" y="520" width="60" height="30" as="geometry" />
        </mxCell>
        <mxCell id="R4tpUfyN2Cm-w9piKVZH-47" value="网络专线" style="html=1;shadow=0;dashed=0;align=center;verticalAlign=middle;shape=mxgraph.arrows2.twoWayArrow;dy=0.6;dx=35;fontSize=18;" vertex="1" parent="1">
          <mxGeometry x="440" y="640" width="160" height="60" as="geometry" />
        </mxCell>
        <mxCell id="R4tpUfyN2Cm-w9piKVZH-49" value="哨兵" style="text;html=1;strokeColor=none;fillColor=none;align=center;verticalAlign=middle;whiteSpace=wrap;rounded=0;fontSize=18;" vertex="1" parent="1">
          <mxGeometry x="220" y="620" width="60" height="30" as="geometry" />
        </mxCell>
        <mxCell id="R4tpUfyN2Cm-w9piKVZH-50" value="哨兵" style="text;html=1;strokeColor=none;fillColor=none;align=center;verticalAlign=middle;whiteSpace=wrap;rounded=0;fontSize=18;" vertex="1" parent="1">
          <mxGeometry x="610" y="620" width="60" height="30" as="geometry" />
        </mxCell>
        <mxCell id="R4tpUfyN2Cm-w9piKVZH-59" style="edgeStyle=orthogonalEdgeStyle;rounded=0;orthogonalLoop=1;jettySize=auto;html=1;entryX=0;entryY=0.5;entryDx=0;entryDy=0;fontSize=18;" edge="1" parent="1" source="R4tpUfyN2Cm-w9piKVZH-51" target="R4tpUfyN2Cm-w9piKVZH-53">
          <mxGeometry relative="1" as="geometry" />
        </mxCell>
        <mxCell id="R4tpUfyN2Cm-w9piKVZH-51" value="master" style="rounded=0;whiteSpace=wrap;html=1;fontSize=18;" vertex="1" parent="1">
          <mxGeometry x="220" y="650" width="80" height="30" as="geometry" />
        </mxCell>
        <mxCell id="R4tpUfyN2Cm-w9piKVZH-53" value="slave" style="rounded=0;whiteSpace=wrap;html=1;fontSize=18;" vertex="1" parent="1">
          <mxGeometry x="330" y="650" width="80" height="30" as="geometry" />
        </mxCell>
        <mxCell id="R4tpUfyN2Cm-w9piKVZH-54" value="sentinel" style="ellipse;whiteSpace=wrap;html=1;fontSize=18;" vertex="1" parent="1">
          <mxGeometry x="210" y="690" width="100" height="40" as="geometry" />
        </mxCell>
        <mxCell id="R4tpUfyN2Cm-w9piKVZH-55" value="sentinel" style="ellipse;whiteSpace=wrap;html=1;fontSize=18;" vertex="1" parent="1">
          <mxGeometry x="320" y="690" width="100" height="40" as="geometry" />
        </mxCell>
        <mxCell id="R4tpUfyN2Cm-w9piKVZH-56" value="slave" style="rounded=0;whiteSpace=wrap;html=1;fontSize=18;" vertex="1" parent="1">
          <mxGeometry x="700" y="655" width="80" height="30" as="geometry" />
        </mxCell>
        <mxCell id="R4tpUfyN2Cm-w9piKVZH-57" value="sentinel" style="ellipse;whiteSpace=wrap;html=1;fontSize=18;" vertex="1" parent="1">
          <mxGeometry x="690" y="690" width="100" height="40" as="geometry" />
        </mxCell>
        <mxCell id="R4tpUfyN2Cm-w9piKVZH-60" value="" style="endArrow=classic;html=1;rounded=0;fontSize=18;exitX=0.883;exitY=-0.011;exitDx=0;exitDy=0;exitPerimeter=0;" edge="1" parent="1" source="R4tpUfyN2Cm-w9piKVZH-51" target="R4tpUfyN2Cm-w9piKVZH-56">
          <mxGeometry width="50" height="50" relative="1" as="geometry">
            <mxPoint x="430" y="660" as="sourcePoint" />
            <mxPoint x="480" y="610" as="targetPoint" />
            <Array as="points">
              <mxPoint x="290" y="620" />
              <mxPoint x="740" y="620" />
            </Array>
          </mxGeometry>
        </mxCell>
        <mxCell id="R4tpUfyN2Cm-w9piKVZH-73" style="edgeStyle=orthogonalEdgeStyle;rounded=0;orthogonalLoop=1;jettySize=auto;html=1;fontSize=18;" edge="1" parent="1" source="R4tpUfyN2Cm-w9piKVZH-62" target="R4tpUfyN2Cm-w9piKVZH-70">
          <mxGeometry relative="1" as="geometry" />
        </mxCell>
        <mxCell id="R4tpUfyN2Cm-w9piKVZH-62" value="master" style="rounded=1;whiteSpace=wrap;html=1;fontSize=18;" vertex="1" parent="1">
          <mxGeometry x="300" y="750" width="120" height="40" as="geometry" />
        </mxCell>
        <mxCell id="R4tpUfyN2Cm-w9piKVZH-74" style="edgeStyle=orthogonalEdgeStyle;rounded=0;orthogonalLoop=1;jettySize=auto;html=1;fontSize=18;" edge="1" parent="1" source="R4tpUfyN2Cm-w9piKVZH-63" target="R4tpUfyN2Cm-w9piKVZH-71">
          <mxGeometry relative="1" as="geometry" />
        </mxCell>
        <mxCell id="R4tpUfyN2Cm-w9piKVZH-63" value="master" style="rounded=1;whiteSpace=wrap;html=1;fontSize=18;" vertex="1" parent="1">
          <mxGeometry x="300" y="800" width="120" height="40" as="geometry" />
        </mxCell>
        <mxCell id="R4tpUfyN2Cm-w9piKVZH-75" style="edgeStyle=orthogonalEdgeStyle;rounded=0;orthogonalLoop=1;jettySize=auto;html=1;fontSize=18;" edge="1" parent="1" source="R4tpUfyN2Cm-w9piKVZH-64" target="R4tpUfyN2Cm-w9piKVZH-72">
          <mxGeometry relative="1" as="geometry" />
        </mxCell>
        <mxCell id="R4tpUfyN2Cm-w9piKVZH-64" value="master" style="rounded=1;whiteSpace=wrap;html=1;fontSize=18;" vertex="1" parent="1">
          <mxGeometry x="300" y="850" width="120" height="40" as="geometry" />
        </mxCell>
        <mxCell id="R4tpUfyN2Cm-w9piKVZH-65" value="key" style="text;html=1;strokeColor=none;fillColor=none;align=center;verticalAlign=middle;whiteSpace=wrap;rounded=0;fontSize=18;" vertex="1" parent="1">
          <mxGeometry x="210" y="810" width="60" height="30" as="geometry" />
        </mxCell>
        <mxCell id="R4tpUfyN2Cm-w9piKVZH-66" value="" style="endArrow=classic;html=1;rounded=0;fontSize=18;" edge="1" parent="1">
          <mxGeometry width="50" height="50" relative="1" as="geometry">
            <mxPoint x="250" y="820" as="sourcePoint" />
            <mxPoint x="300" y="770" as="targetPoint" />
          </mxGeometry>
        </mxCell>
        <mxCell id="R4tpUfyN2Cm-w9piKVZH-67" value="" style="endArrow=classic;html=1;rounded=0;fontSize=18;entryX=0;entryY=0.5;entryDx=0;entryDy=0;exitX=0.5;exitY=1;exitDx=0;exitDy=0;" edge="1" parent="1" source="R4tpUfyN2Cm-w9piKVZH-65" target="R4tpUfyN2Cm-w9piKVZH-64">
          <mxGeometry width="50" height="50" relative="1" as="geometry">
            <mxPoint x="230" y="880" as="sourcePoint" />
            <mxPoint x="280" y="830" as="targetPoint" />
          </mxGeometry>
        </mxCell>
        <mxCell id="R4tpUfyN2Cm-w9piKVZH-69" value="" style="endArrow=classic;html=1;rounded=0;fontSize=18;exitX=1;exitY=0.5;exitDx=0;exitDy=0;entryX=0;entryY=0.5;entryDx=0;entryDy=0;" edge="1" parent="1" source="R4tpUfyN2Cm-w9piKVZH-65" target="R4tpUfyN2Cm-w9piKVZH-63">
          <mxGeometry width="50" height="50" relative="1" as="geometry">
            <mxPoint x="430" y="770" as="sourcePoint" />
            <mxPoint x="480" y="720" as="targetPoint" />
          </mxGeometry>
        </mxCell>
        <mxCell id="R4tpUfyN2Cm-w9piKVZH-70" value="slave&lt;span style=&quot;color: rgba(0, 0, 0, 0); font-family: monospace; font-size: 0px; text-align: start;&quot;&gt;%3CmxGraphModel%3E%3Croot%3E%3CmxCell%20id%3D%220%22%2F%3E%3CmxCell%20id%3D%221%22%20parent%3D%220%22%2F%3E%3CmxCell%20id%3D%222%22%20value%3D%22master%22%20style%3D%22rounded%3D1%3BwhiteSpace%3Dwrap%3Bhtml%3D1%3BfontSize%3D18%3B%22%20vertex%3D%221%22%20parent%3D%221%22%3E%3CmxGeometry%20x%3D%22300%22%20y%3D%22750%22%20width%3D%22120%22%20height%3D%2240%22%20as%3D%22geometry%22%2F%3E%3C%2FmxCell%3E%3C%2Froot%3E%3C%2FmxGraphModel%3E&lt;/span&gt;" style="rounded=1;whiteSpace=wrap;html=1;fontSize=18;" vertex="1" parent="1">
          <mxGeometry x="670" y="750" width="120" height="40" as="geometry" />
        </mxCell>
        <mxCell id="R4tpUfyN2Cm-w9piKVZH-71" value="slave&lt;span style=&quot;color: rgba(0, 0, 0, 0); font-family: monospace; font-size: 0px; text-align: start;&quot;&gt;%3CmxGraphModel%3E%3Croot%3E%3CmxCell%20id%3D%220%22%2F%3E%3CmxCell%20id%3D%221%22%20parent%3D%220%22%2F%3E%3CmxCell%20id%3D%222%22%20value%3D%22master%22%20style%3D%22rounded%3D1%3BwhiteSpace%3Dwrap%3Bhtml%3D1%3BfontSize%3D18%3B%22%20vertex%3D%221%22%20parent%3D%221%22%3E%3CmxGeometry%20x%3D%22300%22%20y%3D%22750%22%20width%3D%22120%22%20height%3D%2240%22%20as%3D%22geometry%22%2F%3E%3C%2FmxCell%3E%3C%2Froot%3E%3C%2FmxGraphModel%3E&lt;/span&gt;" style="rounded=1;whiteSpace=wrap;html=1;fontSize=18;" vertex="1" parent="1">
          <mxGeometry x="670" y="800" width="120" height="40" as="geometry" />
        </mxCell>
        <mxCell id="R4tpUfyN2Cm-w9piKVZH-72" value="slave&lt;span style=&quot;color: rgba(0, 0, 0, 0); font-family: monospace; font-size: 0px; text-align: start;&quot;&gt;%3CmxGraphModel%3E%3Croot%3E%3CmxCell%20id%3D%220%22%2F%3E%3CmxCell%20id%3D%221%22%20parent%3D%220%22%2F%3E%3CmxCell%20id%3D%222%22%20value%3D%22master%22%20style%3D%22rounded%3D1%3BwhiteSpace%3Dwrap%3Bhtml%3D1%3BfontSize%3D18%3B%22%20vertex%3D%221%22%20parent%3D%221%22%3E%3CmxGeometry%20x%3D%22300%22%20y%3D%22750%22%20width%3D%22120%22%20height%3D%2240%22%20as%3D%22geometry%22%2F%3E%3C%2FmxCell%3E%3C%2Froot%3E%3C%2FmxGraphModel%3E&lt;/span&gt;" style="rounded=1;whiteSpace=wrap;html=1;fontSize=18;" vertex="1" parent="1">
          <mxGeometry x="670" y="850" width="120" height="40" as="geometry" />
        </mxCell>
        <mxCell id="R4tpUfyN2Cm-w9piKVZH-76" value="repl" style="text;html=1;strokeColor=none;fillColor=none;align=center;verticalAlign=middle;whiteSpace=wrap;rounded=0;fontSize=18;" vertex="1" parent="1">
          <mxGeometry x="490" y="790" width="60" height="30" as="geometry" />
        </mxCell>
        <mxCell id="R4tpUfyN2Cm-w9piKVZH-80" value="" style="shape=flexArrow;endArrow=classic;html=1;rounded=0;fontSize=18;entryX=-0.012;entryY=0.151;entryDx=0;entryDy=0;entryPerimeter=0;" edge="1" parent="1" target="R4tpUfyN2Cm-w9piKVZH-27">
          <mxGeometry width="50" height="50" relative="1" as="geometry">
            <mxPoint x="80" y="600" as="sourcePoint" />
            <mxPoint x="130" y="550" as="targetPoint" />
          </mxGeometry>
        </mxCell>
        <mxCell id="R4tpUfyN2Cm-w9piKVZH-81" value="" style="shape=flexArrow;endArrow=classic;html=1;rounded=0;fontSize=18;" edge="1" parent="1" target="R4tpUfyN2Cm-w9piKVZH-27">
          <mxGeometry width="50" height="50" relative="1" as="geometry">
            <mxPoint x="80" y="640" as="sourcePoint" />
            <mxPoint x="207.24" y="590.9699999999998" as="targetPoint" />
          </mxGeometry>
        </mxCell>
        <mxCell id="R4tpUfyN2Cm-w9piKVZH-83" value="" style="shape=flexArrow;endArrow=classic;html=1;rounded=0;fontSize=18;entryX=0;entryY=0.5;entryDx=0;entryDy=0;" edge="1" parent="1" target="R4tpUfyN2Cm-w9piKVZH-65">
          <mxGeometry width="50" height="50" relative="1" as="geometry">
            <mxPoint x="80" y="720" as="sourcePoint" />
            <mxPoint x="207.24" y="670.9699999999998" as="targetPoint" />
          </mxGeometry>
        </mxCell>
      </root>
    </mxGraphModel>
  </diagram>
</mxfile>
